<svg xmlns="http://www.w3.org/2000/svg" width="375" height="301" viewBox="0 0 375 301"><rect x="0" y="0" width="375" height="301" fill="#ffffff"/><defs><linearGradient id="dn" gradientUnits="userSpaceOnUse" x1="38" y1="0" x2="365" y2="0"><stop offset="0" stop-color="#eff2f7"/><stop offset="0.2563" stop-color="#eff2f7"/><stop offset="0.3021" stop-color="#ffffff"/><stop offset="0.7681" stop-color="#ffffff"/><stop offset="0.8139" stop-color="#eff2f7"/><stop offset="1" stop-color="#eff2f7"/></linearGradient></defs><rect x="38" y="0" width="327" height="260" fill="url(#dn)"/><g stroke="#e9eae4" stroke-width="0.6"><line x1="44.8" y1="0" x2="44.8" y2="260"/><line x1="72.1" y1="0" x2="72.1" y2="260"/><line x1="99.3" y1="0" x2="99.3" y2="260"/><line x1="126.6" y1="0" x2="126.6" y2="260"/><line x1="153.8" y1="0" x2="153.8" y2="260"/><line x1="181.1" y1="0" x2="181.1" y2="260"/><line x1="208.3" y1="0" x2="208.3" y2="260"/><line x1="235.6" y1="0" x2="235.6" y2="260"/><line x1="262.8" y1="0" x2="262.8" y2="260"/><line x1="290.1" y1="0" x2="290.1" y2="260"/><line x1="317.3" y1="0" x2="317.3" y2="260"/><line x1="344.6" y1="0" x2="344.6" y2="260"/></g><g stroke="#e9eae4" stroke-width="0.6"><line x1="38" y1="195.0" x2="365" y2="195.0"/><line x1="38" y1="130.0" x2="365" y2="130.0"/><line x1="38" y1="65.0" x2="365" y2="65.0"/></g><rect x="38" y="0" width="327" height="260" fill="none" stroke="#d3d5cd" stroke-width="0.8"/><defs><clipPath id="cfclip"><rect x="38" y="0" width="327" height="260"/></clipPath></defs><g clip-path="url(#cfclip)"><path d="M187.3,253.7L187.7,254.1L188.7,254.2L190.4,254.3L191.6,254.1L192.2,253.7L193.1,253.2L194.1,252.7L195.5,252.0L197.2,251.3L198.9,250.7L200.6,250.4L202.4,250.4L204.1,250.6L205.8,251.0L207.5,251.5L209.2,252.1L210.9,252.8L212.2,253.2L213.3,253.4L214.1,253.6L214.8,253.7L215.7,253.7L217.0,253.6L217.8,253.5L218.3,253.4L219.4,252.8L221.1,251.8L222.1,251.0L222.6,250.5L223.3,249.4L224.2,247.8L224.9,246.7L225.2,246.2L225.5,245.4L225.9,244.3L226.6,242.9L227.5,241.3L228.1,240.2L228.5,239.5L229.0,238.7L229.4,237.7L230.0,236.4L230.7,234.8L231.4,233.4L231.9,232.2L232.2,231.4L232.4,231.0L232.7,229.9L233.2,228.3L233.8,226.7L234.3,225.1L234.9,223.7L235.3,222.6L235.7,221.8L235.9,221.3L236.5,220.2L237.4,218.6L238.2,217.4L238.7,216.6L239.3,215.8L240.0,214.9L240.8,213.9L241.9,212.7L242.6,211.9L243.0,211.5L243.8,210.5L245.1,209.1L245.9,208.3L246.1,208.1L247.0,207.4L248.5,206.2L249.5,205.4L250.0,205.0L250.8,204.4L252.0,203.6L253.1,202.8L254.2,201.9L255.0,201.3L255.7,200.8L256.6,200.0L257.9,198.8L258.7,198.0L259.2,197.6L259.9,196.8L260.9,195.6L261.7,194.4L262.4,193.2L262.9,192.4L263.2,192.0L263.9,190.9L264.9,189.3L265.6,188.3L266.0,187.9L266.9,187.0L268.4,185.8L269.2,185.2L269.5,185.0L270.5,184.5L272.2,183.5L273.7,182.8L274.9,182.3L275.8,181.9L276.2,181.7L277.3,181.2L279.0,180.5L280.7,179.8L282.3,179.1L283.2,178.7L283.2,178.7L284.1,177.9L285.7,176.3L286.6,175.5L286.6,175.4L287.3,174.6L288.5,173.0L289.3,172.0L289.8,171.6L290.9,170.9L292.6,170.0L294.2,169.4L295.8,169.1L296.6,169.0L296.8,169.0L297.0,169.0L297.1,169.0L298.0,169.1L299.5,169.4L301.1,169.9L302.8,170.8L304.0,171.5L304.6,172.0L305.4,172.9L306.5,174.1L307.3,174.9L307.7,175.3L308.6,176.0L309.9,177.0L311.4,177.7L313.1,178.0L314.8,177.7L316.5,176.9L317.7,176.3L318.4,175.8L319.3,175.2L320.2,174.5L321.6,173.9L323.3,173.1L324.6,172.6L325.7,172.4L326.5,172.2L327.2,172.0L328.4,171.8L330.1,171.5L331.8,171.3L333.5,171.0L335.2,170.7L336.9,170.3L338.6,170.0L340.3,169.6L341.6,169.3L342.4,169.1L343.3,168.9L344.1,168.8L345.4,168.5L347.1,168.3L348.8,168.1L350.5,168.0L352.2,167.9L353.9,167.8L355.6,167.8L357.3,167.8L359.0,167.8L360.7,167.8L362.4,167.8L364.1,167.8L365.9,167.8L367.6,167.8L323.1,189.2L232.5,232.1ZM183.3,249.4L182.0,247.8L181.3,246.9L181.1,246.8L180.3,245.9L178.7,244.5L177.8,243.7L177.7,243.6L176.8,243.1L175.1,242.2L173.4,241.5L171.7,241.0L170.5,240.7L169.8,240.6L169.0,240.4L167.9,240.2L166.6,240.1L164.9,239.9L163.2,239.8L161.5,239.8L159.8,239.9L158.1,240.1L156.8,240.3L156.0,240.4L155.2,240.6L154.3,240.8L153.0,241.1L151.3,241.6L149.6,242.0L147.9,242.5L146.1,242.9L144.4,243.2L143.1,243.5L142.1,243.7L141.2,243.8L140.5,243.9L139.3,244.1L137.6,244.3L135.9,244.5L134.2,244.7L132.5,244.8L130.8,244.9L129.1,245.0L127.4,245.0L125.7,245.0L124.0,245.0L122.3,245.0L120.6,245.1L118.9,245.1L117.2,245.2L115.5,245.2L113.8,245.3L112.1,245.4L110.4,245.4L108.7,245.2L107.0,245.0L105.3,244.6L103.6,244.2L102.6,243.9L102.4,243.8L101.6,243.4L100.1,242.8L98.5,242.2L96.8,241.6L95.4,241.0L94.3,240.7L93.4,240.4L92.8,240.2L91.6,239.8L89.9,239.3L88.2,238.8L86.5,238.4L84.8,238.0L83.1,237.7L81.7,237.5L80.5,237.3L79.7,237.2L79.1,237.2L78.0,237.1L76.3,237.0L74.6,237.0L72.9,237.1L71.4,237.1L70.1,237.2L69.3,237.3L68.9,237.3L67.8,237.4L66.1,237.5L64.4,237.6L62.7,237.8L61.0,238.0L59.3,238.2L57.6,238.4L55.9,238.5L54.2,238.6L52.5,238.6L50.8,238.6L49.1,238.4L47.4,238.2L45.7,237.9L44.0,237.6L42.5,237.4L41.6,237.2L41.5,237.2L40.6,237.1L38.9,237.0L37.1,236.9L35.4,236.9L71.9,240.2L146.6,246.9ZM336.9,247.3L337.5,248.0L338.6,248.6L340.3,248.9L342.0,248.9L343.7,248.5L345.4,248.1L347.1,247.6L348.4,247.2L349.1,247.1L350.0,246.9L350.9,246.7L352.2,246.6L353.9,246.5L355.6,246.4L357.3,246.4L359.0,246.4L360.7,246.4L362.4,246.4L364.1,246.4L365.9,246.4L367.6,246.4L360.5,246.6L344.5,246.9ZM336.9,246.7L337.5,246.0L338.2,245.2L339.2,244.2L340.1,243.7L340.8,243.5L342.0,243.0L343.7,242.4L345.0,241.7L345.8,240.9L346.7,239.7L347.5,238.1L347.9,237.1L347.9,236.8L348.1,236.0L348.4,234.7L348.6,233.2L348.8,231.6L348.9,229.9L349.0,228.3L349.0,226.7L349.0,225.1L348.9,223.4L348.8,221.8L348.7,220.2L348.6,218.6L348.5,216.9L348.4,215.3L348.4,213.7L348.4,212.1L348.5,210.4L348.7,208.8L349.2,207.2L349.9,205.6L350.5,204.4L351.1,203.7L352.2,203.1L353.9,202.6L355.6,202.4L357.3,202.4L359.0,202.4L360.7,202.4L362.4,202.4L364.1,202.4L365.9,202.4L367.6,202.4L360.5,213.6L344.5,235.9Z" fill="#eeeeea" fill-rule="evenodd"/><path d="M98.0,262.4L98.0,260.8L97.5,259.5L96.4,258.4L95.6,257.6L95.0,257.0L94.2,256.4L93.1,255.8L91.6,255.0L89.9,254.1L89.0,253.6L88.8,253.5L87.9,253.2L86.4,252.5L84.8,251.9L83.1,251.3L81.4,250.8L79.7,250.5L78.5,250.3L77.8,250.3L76.9,250.2L76.0,250.2L75.3,250.2L74.8,250.2L74.0,250.3L72.7,250.4L71.2,250.6L69.5,250.9L67.8,251.2L66.1,251.6L64.4,252.0L62.7,252.5L61.3,252.9L60.2,253.3L59.3,253.6L58.7,253.8L57.6,254.2L55.9,254.8L54.2,255.2L52.5,255.5L50.8,255.5L49.1,255.3L47.4,254.9L45.7,254.3L44.5,253.9L43.7,253.6L42.9,253.3L41.9,253.0L40.6,252.6L38.9,252.2L37.1,252.1L35.4,252.1L50.5,254.9L82.2,260.5ZM157.2,262.4L157.2,260.8L157.2,260.0L157.2,260.0L158.1,259.8L159.8,259.5L161.4,259.5L162.8,259.8L163.6,260.8L163.6,262.4L162.0,263.3L158.8,263.3ZM275.2,262.4L275.2,260.8L275.0,259.2L274.8,257.6L274.5,255.9L274.1,254.3L273.7,252.8L273.3,251.5L273.0,250.7L272.8,250.4L272.2,249.4L271.1,247.8L270.3,246.9L269.9,246.6L268.8,246.0L267.1,245.2L265.5,244.6L263.9,244.0L263.1,243.7L262.9,243.7L262.0,243.6L260.3,243.3L258.6,243.1L256.9,243.0L255.1,243.1L253.4,243.3L252.4,243.5L252.0,243.7L251.1,244.1L249.8,244.7L248.3,245.2L246.6,245.8L244.9,246.0L243.2,245.8L241.9,245.2L240.9,244.2L240.3,242.9L240.2,241.3L240.4,239.7L240.8,238.1L241.1,236.4L241.4,234.8L241.6,233.2L241.8,231.6L242.0,230.2L242.3,229.2L242.4,228.4L242.6,227.8L243.0,226.7L243.8,225.1L244.6,223.7L245.4,222.6L246.0,221.8L246.4,221.3L247.2,220.2L248.5,218.7L249.2,217.9L249.3,217.8L250.2,216.9L251.7,215.3L252.5,214.5L252.5,214.4L253.2,213.6L254.5,212.0L255.3,211.0L255.8,210.5L256.4,209.7L257.2,208.6L258.0,207.5L259.0,206.4L259.6,205.6L260.0,205.0L260.9,204.0L262.2,202.5L262.9,201.7L262.9,201.6L263.7,200.7L265.2,199.1L266.0,198.2L266.1,198.0L266.9,197.2L268.2,195.7L269.0,194.8L269.4,194.3L270.1,193.5L271.2,192.3L272.0,191.4L272.7,190.8L273.6,190.0L274.8,189.0L275.6,188.3L276.2,188.0L277.3,187.3L279.0,186.3L280.1,185.7L280.8,185.4L281.6,185.0L282.7,184.5L284.1,183.9L285.8,183.1L287.0,182.5L287.6,182.2L288.5,181.7L289.5,181.0L290.9,180.3L292.6,179.4L293.7,178.9L294.3,178.8L295.1,178.6L296.3,178.3L297.4,178.3L298.5,178.6L299.3,178.8L300.0,179.0L301.1,179.6L302.8,180.8L303.9,181.5L304.3,181.8L305.2,182.5L306.5,183.5L307.6,184.3L308.5,184.9L309.3,185.6L310.1,186.2L311.2,187.0L312.7,188.0L313.6,188.6L313.8,188.8L314.6,189.6L316.1,191.0L317.0,191.9L317.2,192.2L317.8,193.0L318.8,194.3L319.7,195.4L320.4,196.2L321.1,197.0L322.0,197.8L322.8,198.6L323.7,199.4L325.0,200.2L326.7,201.0L327.6,201.5L327.7,201.5L328.6,201.6L330.2,201.8L331.8,201.9L333.5,202.0L335.2,202.2L336.9,202.6L338.4,203.3L339.8,204.3L340.7,204.9L341.0,205.3L341.5,206.1L342.1,207.4L342.6,208.8L343.0,210.4L343.4,212.1L343.6,213.7L343.8,215.3L344.0,216.9L344.1,218.6L344.3,220.2L344.4,221.5L344.5,222.6L344.6,223.4L344.6,224.0L344.6,225.1L344.6,226.7L344.6,227.6L344.6,227.7L344.4,228.5L344.0,230.0L343.4,231.6L342.4,233.2L341.8,234.2L341.4,234.7L340.3,235.5L338.6,236.7L337.7,237.2L337.7,237.2L336.8,237.5L335.2,238.0L333.5,238.5L331.8,238.9L330.1,239.4L328.4,239.9L327.4,240.3L327.1,240.4L326.2,241.0L324.8,241.9L323.7,242.7L323.0,243.4L322.1,244.5L321.2,246.1L320.7,246.9L320.7,247.0L320.4,247.8L319.9,249.4L319.4,251.1L318.9,252.7L318.4,254.3L317.8,255.9L317.5,257.0L317.4,257.5L317.2,258.3L316.9,259.4L316.8,260.8L316.8,262.4L306.4,263.3L285.6,263.3ZM346.8,181.2L346.4,179.6L346.7,178.5L347.5,177.9L348.8,177.3L350.5,176.6L352.2,176.2L353.9,176.0L355.6,175.9L357.3,175.9L359.0,175.9L360.7,175.9L362.4,175.9L364.1,175.9L365.9,175.9L367.6,175.9L363.0,177.4L352.3,180.5Z" fill="#d4d6d0" fill-rule="evenodd"/><path d="M296.2,256.8L296.7,256.9L297.0,256.9L297.4,256.8L298.2,256.6L299.6,256.3L301.1,255.6L302.8,254.4L303.8,253.8L303.9,253.6L304.6,252.7L305.7,251.1L306.5,249.9L306.9,249.1L307.3,248.3L307.7,247.4L308.3,246.2L309.1,244.6L309.8,243.4L310.3,242.7L310.9,241.9L311.7,241.0L312.5,240.0L313.4,239.1L314.3,238.3L315.0,237.6L315.9,236.8L316.8,235.9L317.7,235.1L318.6,234.4L319.4,233.6L320.3,232.8L321.3,232.0L322.6,231.2L323.5,230.5L323.9,230.1L325.0,229.5L326.7,228.9L328.4,228.5L330.1,228.5L331.8,228.4L333.5,228.2L334.6,228.0L335.1,227.7L335.5,226.7L335.7,225.1L335.4,223.7L334.7,222.5L333.5,221.9L331.8,221.8L330.1,221.9L328.4,222.2L327.1,222.0L326.2,221.3L325.4,220.7L324.5,220.0L323.9,219.2L323.5,218.2L323.0,216.9L322.3,215.3L321.7,213.8L321.0,212.5L320.7,211.7L320.6,211.4L320.0,210.4L319.1,208.8L318.3,207.6L317.6,206.7L317.0,205.9L316.4,205.1L315.5,204.1L314.4,202.9L313.7,202.0L313.4,201.7L312.5,200.8L311.2,199.4L310.4,198.6L310.1,198.4L309.3,197.5L307.8,195.9L307.1,195.1L307.0,195.0L306.2,194.2L304.7,192.6L303.8,191.7L303.7,191.6L302.8,190.9L301.1,189.5L300.0,188.8L299.6,188.6L298.7,188.3L297.5,187.8L296.0,187.7L294.3,187.8L293.0,188.0L292.0,188.3L291.2,188.6L290.4,188.9L289.2,189.4L287.5,190.2L286.1,190.9L285.0,191.5L284.1,191.9L283.5,192.2L282.4,193.0L280.7,194.1L279.8,194.8L279.6,194.9L278.7,195.7L277.2,197.2L276.3,198.0L276.2,198.2L275.3,199.1L273.8,200.7L272.3,202.3L270.8,203.9L269.9,204.9L269.7,205.1L269.0,205.9L267.9,207.3L267.0,208.4L266.5,209.2L266.0,210.1L265.5,210.9L264.9,212.1L264.2,213.7L263.6,215.3L263.1,216.8L262.8,217.6L262.8,217.7L262.3,218.6L261.5,220.2L260.7,221.7L259.8,223.0L259.3,223.8L259.1,224.1L258.7,225.1L258.2,226.7L258.3,227.9L259.0,228.8L259.8,229.7L260.6,230.4L261.4,231.0L262.3,231.5L263.7,232.0L265.4,232.7L266.9,233.3L268.2,233.8L269.1,234.1L269.4,234.2L270.5,234.5L272.2,234.9L273.9,235.4L275.6,235.8L277.3,236.3L279.0,236.9L279.9,237.2L280.0,237.2L280.9,237.7L282.5,238.6L283.6,239.4L284.3,240.1L285.2,241.2L286.2,242.7L286.7,243.5L286.8,243.7L287.1,244.6L287.6,246.2L288.1,247.8L288.6,249.4L289.1,251.0L289.7,252.4L290.1,253.2L290.3,253.4L291.2,254.2L292.7,255.6L294.1,256.4L295.4,256.6L296.0,256.8L296.0,256.8Z" fill="#b0b2ab" fill-rule="evenodd"/><path d="M294.7,241.2L296.1,242.6L297.7,242.9L299.4,242.2L300.5,241.5L301.0,240.8L301.8,239.7L303.1,238.1L303.7,237.2L303.7,237.2L304.3,236.4L305.6,234.8L306.4,233.8L306.9,233.3L307.7,232.5L308.9,231.3L309.7,230.4L310.2,229.8L310.9,229.0L311.7,228.0L312.3,226.7L312.6,225.1L312.7,223.4L312.6,221.8L312.5,220.2L312.3,218.6L312.2,216.9L312.1,215.3L311.8,213.7L311.4,212.1L311.0,211.0L310.7,210.5L310.0,209.7L309.1,208.6L308.3,207.6L307.5,206.9L306.6,206.1L305.7,205.2L304.8,204.4L304.1,203.6L303.2,202.8L302.3,201.9L301.5,201.1L300.7,200.2L299.7,199.4L298.5,198.6L297.7,198.1L297.1,197.7L296.0,197.5L294.3,197.3L292.6,197.4L290.9,197.9L290.0,198.2L289.9,198.2L289.1,198.7L287.5,199.5L286.0,200.3L284.7,201.1L283.8,201.6L283.4,201.8L282.4,202.6L280.7,203.9L279.8,204.6L279.7,204.7L278.9,205.5L277.2,207.1L276.4,208.0L276.4,208.0L275.9,208.8L274.8,210.4L274.2,212.1L274.0,213.7L274.1,215.3L274.4,216.9L274.7,218.6L275.2,220.2L275.7,221.6L276.2,222.7L276.6,223.5L276.9,224.0L277.8,224.8L279.2,225.8L280.3,226.6L281.1,227.2L282.0,227.7L282.8,228.1L284.1,228.9L285.7,230.1L286.5,230.8L286.6,230.9L287.4,231.7L288.8,233.2L289.6,234.2L289.9,234.6L290.5,235.4L291.4,236.6L292.3,238.0L293.1,239.4L293.6,240.2L293.8,240.4L293.9,240.5L293.9,240.5Z" fill="#84867f" fill-rule="evenodd"/><path d="M296.7,230.8L296.8,230.9L297.0,230.9L297.3,230.8L298.2,230.5L299.6,230.0L300.8,229.2L301.9,228.1L302.7,226.7L303.4,225.2L303.7,224.4L303.7,224.3L303.8,223.4L303.9,221.8L304.0,220.2L304.1,218.6L304.2,216.9L304.2,215.3L304.1,214.0L303.8,212.9L303.6,212.0L303.4,211.5L302.6,210.5L301.0,208.9L300.3,208.1L300.2,208.0L299.4,207.5L297.7,206.6L296.0,205.9L294.3,205.4L292.6,205.3L290.9,205.4L289.2,205.8L287.5,206.3L285.9,206.9L284.4,207.6L283.5,208.1L283.3,208.2L282.6,209.0L281.3,210.5L280.7,212.1L280.9,213.7L281.6,215.2L282.7,216.7L283.3,217.5L283.5,217.7L284.3,218.5L285.9,220.0L286.7,220.8L286.9,220.9L287.7,221.8L289.1,223.4L289.9,224.3L290.0,224.5L290.7,225.3L291.9,226.8L292.7,227.8L293.2,228.3L294.3,229.2L295.8,230.2L296.6,230.8L296.6,230.8Z" fill="#5a5c56" fill-rule="evenodd"/></g><line x1="38" y1="260.0" x2="365" y2="260.0" stroke="#163e35" stroke-width="1" stroke-dasharray="4 3"/><text x="361" y="256.0" text-anchor="end" font-size="7.5" font-weight="600" fill="#163e35" stroke="#fff" stroke-width="2.5" paint-order="stroke">你 · 500 m（剖面下方）</text><text x="33" y="262.5" text-anchor="end" font-size="7.5" fill="#8a8f8a">2000</text><text x="33" y="197.5" text-anchor="end" font-size="7.5" fill="#8a8f8a">3000</text><text x="33" y="132.5" text-anchor="end" font-size="7.5" fill="#8a8f8a">4000</text><text x="33" y="67.5" text-anchor="end" font-size="7.5" fill="#8a8f8a">5000</text><text x="33" y="2.5" text-anchor="end" font-size="7.5" fill="#8a8f8a">6000 m</text><g><text x="44.8" y="273" text-anchor="middle" font-size="8" fill="#8a8f8a">00</text><text x="72.1" y="273" text-anchor="middle" font-size="8" fill="#8a8f8a">02</text><text x="99.3" y="273" text-anchor="middle" font-size="8" fill="#8a8f8a">04</text><text x="126.6" y="273" text-anchor="middle" font-size="8" fill="#8a8f8a">06</text><text x="153.8" y="273" text-anchor="middle" font-size="8" fill="#8a8f8a">08</text><text x="181.1" y="273" text-anchor="middle" font-size="8" fill="#8a8f8a">10</text><text x="208.3" y="273" text-anchor="middle" font-size="8" fill="#8a8f8a">12</text><text x="235.6" y="273" text-anchor="middle" font-size="8" fill="#8a8f8a">14</text><text x="262.8" y="273" text-anchor="middle" font-size="8" fill="#8a8f8a">16</text><text x="290.1" y="273" text-anchor="middle" font-size="8" fill="#8a8f8a">18</text><text x="317.3" y="273" text-anchor="middle" font-size="8" fill="#8a8f8a">20</text><text x="344.6" y="273" text-anchor="middle" font-size="8" fill="#8a8f8a">22</text></g><text x="201.5" y="10" text-anchor="middle" font-size="9" font-weight="600" fill="#545954" letter-spacing="0.08em">真实预报 · 2026-10-07</text><rect x="0" y="0" width="375" height="301" fill="none"/><rect x="256.0" y="0" width="13.6" height="260" fill="rgba(22,62,53,0.035)"/><line x1="262.8" y1="-2" x2="262.8" y2="264" stroke="#163e35" stroke-width="0.5" opacity="0.4"/><rect x="251.8" y="266" width="22" height="11" rx="2" fill="#163e35"/><text x="262.8" y="273.5" text-anchor="middle" font-size="7" font-weight="600" fill="#fff">16:00</text></svg>